<?xml version="1.0" encoding="utf-8"?>
<!-- Generator: Adobe Illustrator 26.2.1, SVG Export Plug-In . SVG Version: 6.00 Build 0)  -->
<svg version="1.1" id="Layer_1" xmlns="http://www.w3.org/2000/svg" xmlns:xlink="http://www.w3.org/1999/xlink" x="0px" y="0px"
	 viewBox="0 0 22.4 22.4" style="enable-background:new 0 0 22.4 22.4;" xml:space="preserve">
<style type="text/css">
	.st0{fill-rule:evenodd;clip-rule:evenodd;fill:#B90E00;}
</style>
<g id="a">
</g>
<g id="b">
	<g id="c">
		<path class="st0" d="M22.4,2.4V20c0,1.3-1.1,2.4-2.4,2.4H2.4C1.1,22.4,0,21.3,0,20V2.4C0,1.1,1.1,0,2.4,0H20
			C21.3,0,22.4,1.1,22.4,2.4z M9.3,8.5l4.8,2.7l-4.8,2.7V8.5L9.3,8.5z M19.9,6.8c0.4,1.4,0.4,4.4,0.4,4.4s0,3-0.4,4.4
			c-0.2,0.8-0.8,1.4-1.6,1.6c-1.4,0.4-7.1,0.4-7.1,0.4s-5.7,0-7.1-0.4c-0.8-0.2-1.4-0.8-1.6-1.6c-0.4-1.4-0.4-4.4-0.4-4.4
			s0-3,0.4-4.4C2.7,6,3.3,5.4,4.1,5.2c1.4-0.4,7.1-0.4,7.1-0.4s5.7,0,7.1,0.4C19.1,5.4,19.7,6,19.9,6.8L19.9,6.8z"/>
	</g>
</g>
</svg>
