<?xml version="1.0" encoding="utf-8"?>
<!-- Generator: Adobe Illustrator 26.2.1, SVG Export Plug-In . SVG Version: 6.00 Build 0)  -->
<svg version="1.1" id="Layer_1" xmlns="http://www.w3.org/2000/svg" xmlns:xlink="http://www.w3.org/1999/xlink" x="0px" y="0px"
	 viewBox="0 0 22.4 22.4" style="enable-background:new 0 0 22.4 22.4;" xml:space="preserve">
<style type="text/css">
	.st0{fill-rule:evenodd;clip-rule:evenodd;fill:#B91300;}
</style>
<g id="a">
</g>
<g id="b">
	<g id="c">
		<path class="st0" d="M2.4,0H20c1.3,0,2.4,1.1,2.4,2.4V20c0,1.3-1.1,2.4-2.4,2.4H2.4C1.1,22.4,0,21.3,0,20V2.4C0,1.1,1.1,0,2.4,0z
			 M17.6,8.4c0-0.1,0-0.3,0-0.4c0.6-0.5,1.2-1.1,1.6-1.7c-0.6,0.3-1.2,0.4-1.9,0.5c0.7-0.4,1.2-1.1,1.4-1.8
			c-0.6,0.4-1.3,0.7-2.1,0.8c-0.6-0.6-1.4-1-2.4-1c-2,0-3.7,1.8-3.2,4C8.4,8.6,5.9,7.3,4.3,5.3C4,5.8,3.9,6.3,3.9,6.9
			c0,1.1,0.5,2.1,1.5,2.7c-0.5,0-1.1-0.2-1.5-0.4v0c0,1.6,1.1,2.9,2.6,3.2c-0.5,0.1-1,0.1-1.5,0.1c0.4,1.3,1.6,2.2,3.1,2.3
			c-1.1,0.9-2.5,1.4-4.1,1.4c-0.3,0-0.5,0-0.8,0c1.5,0.9,3.2,1.5,5,1.5C14.3,17.7,17.6,12.7,17.6,8.4L17.6,8.4z"/>
	</g>
</g>
</svg>
