<?xml version="1.0" encoding="UTF-8"?><svg xmlns="http://www.w3.org/2000/svg" viewBox="0 0 16 25.6"><defs><style>.d{fill:#ffd205;fill-rule:evenodd;}</style></defs><g id="a"/><g id="b"><g id="c"><path class="d" d="M16,2.4V23.2c0,1.32-1.07,2.4-2.4,2.4H2.4c-1.33,0-2.4-1.08-2.4-2.4V2.4C0,1.08,1.08,0,2.4,0H13.6c1.32,0,2.4,1.08,2.4,2.4Zm-6.2,20h-3.6c-.33,0-.6-.27-.6-.6v-.4c0-.33,.27-.6,.6-.6h3.6c.33,0,.6,.27,.6,.6v.4c0,.33-.27,.6-.6,.6ZM13.6,1.6c.44,0,.8,.36,.8,.8V23.2c0,.44-.36,.8-.8,.8H2.4c-.44,0-.8-.36-.8-.8V2.4c0-.44,.36-.8,.8-.8H13.6Z"/></g></g></svg>