<?xml version="1.0" encoding="utf-8"?>
<!-- Generator: Adobe Illustrator 26.2.1, SVG Export Plug-In . SVG Version: 6.00 Build 0)  -->
<svg version="1.1" id="Layer_1" xmlns="http://www.w3.org/2000/svg" xmlns:xlink="http://www.w3.org/1999/xlink" x="0px" y="0px"
	 viewBox="0 0 22.4 22.4" style="enable-background:new 0 0 22.4 22.4;" xml:space="preserve">
<style type="text/css">
	.st0{fill:#D00000;}
</style>
<g id="a">
</g>
<g id="b">
	<g id="c">
		<path class="st0" d="M20,0H2.4C1.1,0,0,1.1,0,2.4V20c0,1.3,1.1,2.4,2.4,2.4h6.9v-7.6H6.1v-3.6h3.2V8.5c0-3.1,1.9-4.8,4.7-4.8
			c1.4,0,2.8,0.2,2.8,0.2v3h-1.6c-1.5,0-2,1-2,1.9v2.3h3.4L16,14.8h-2.9v7.6H20c1.3,0,2.4-1.1,2.4-2.4V2.4C22.4,1.1,21.3,0,20,0
			C20,0,20,0,20,0z"/>
	</g>
</g>
</svg>
