<?xml version="1.0" encoding="utf-8"?>
<!-- Generator: Adobe Illustrator 26.2.1, SVG Export Plug-In . SVG Version: 6.00 Build 0)  -->
<svg version="1.1" id="Layer_1" xmlns="http://www.w3.org/2000/svg" xmlns:xlink="http://www.w3.org/1999/xlink" x="0px" y="0px"
	 viewBox="0 0 22.4 22.4" style="enable-background:new 0 0 22.4 22.4;" xml:space="preserve">
<style type="text/css">
	.st0{fill-rule:evenodd;clip-rule:evenodd;fill:#B90900;}
</style>
<g id="a">
</g>
<g id="b">
	<g id="c">
		<path class="st0" d="M20,0H2.4C1.1,0,0,1.1,0,2.4V20c0,1.3,1.1,2.4,2.4,2.4H20c1.3,0,2.4-1.1,2.4-2.4V2.4C22.4,1.1,21.3,0,20,0z
			 M15.9,5c0.7,0.3,1.2,0.8,1.5,1.5l0,0c0.4,0.9,0.3,2.9,0.3,4.2l0,0c0,0.2,0,0.4,0,0.6s0,0.4,0,0.6l0,0c0,1.3,0,3.2-0.3,4.2
			c-0.3,0.7-0.8,1.2-1.5,1.5c-0.9,0.4-2.9,0.3-4.1,0.3c-0.2,0-0.4,0-0.6,0s-0.4,0-0.6,0c-1.3,0-3.2,0-4.2-0.3
			c-0.7-0.3-1.2-0.8-1.5-1.5C4.6,15,4.6,13,4.6,11.8c0-0.2,0-0.4,0-0.6s0-0.4,0-0.6c0-1.3,0-3.3,0.3-4.2C5.2,5.8,5.8,5.2,6.5,5
			c0.9-0.4,2.9-0.3,4.1-0.3l0,0c0.2,0,0.4,0,0.6,0s0.4,0,0.6,0l0,0C13,4.6,15,4.6,15.9,5L15.9,5z M8.5,11.2c0-1.5,1.2-2.7,2.7-2.7
			c1.5,0,2.7,1.2,2.7,2.7c0,1.5-1.2,2.7-2.7,2.7C9.7,13.9,8.5,12.7,8.5,11.2z M11.2,15.3c-2.3,0-4.1-1.8-4.1-4.1s1.8-4.1,4.1-4.1
			s4.1,1.8,4.1,4.1c0,1.1-0.4,2.1-1.2,2.9C13.3,14.9,12.3,15.3,11.2,15.3z M14.6,7.3c0.1,0.4,0.5,0.6,0.9,0.6l0,0
			c0.2,0,0.5-0.1,0.7-0.3c0.2-0.2,0.3-0.4,0.3-0.7c0-0.4-0.2-0.7-0.6-0.9s-0.8-0.1-1,0.2C14.5,6.5,14.4,6.9,14.6,7.3z M17.9,17.8
			c0.9-0.9,1.2-2.1,1.3-3.4c0.1-1.3,0.1-5.3,0-6.6c-0.1-1.3-0.4-2.4-1.3-3.3c-0.9-0.9-2.1-1.2-3.4-1.3c-1.3-0.1-5.3-0.1-6.6,0
			C6.6,3.3,5.5,3.6,4.5,4.6S3.3,6.6,3.3,7.9c-0.1,1.3-0.1,5.3,0,6.6c0.1,1.3,0.4,2.4,1.3,3.4c0.9,0.9,2.1,1.2,3.3,1.3
			c1.3,0.1,5.3,0.1,6.6,0C15.8,19.1,16.9,18.8,17.9,17.8L17.9,17.8z"/>
	</g>
</g>
</svg>
