<?xml version="1.0" encoding="UTF-8"?><svg xmlns="http://www.w3.org/2000/svg" viewBox="0 0 20.48 20.48"><defs><style>.d{fill:#ffd205;fill-rule:evenodd;}</style></defs><g id="a"/><g id="b"><g id="c"><path class="d" d="M17.78,.14c.23-.1,.47-.14,.7-.14,1.29,0,2.41,1.4,1.86,2.7l-7.68,16.63c-.37,.79-1.07,1.15-1.76,1.15-.98,0-1.95-.72-1.95-1.92v-7.04H1.92c-2.05,0-2.69-2.81-.77-3.71L17.78,.14Zm-6.28,18.65L19.18,2.16c.08-.18,0-.39-.1-.52-.14-.22-.39-.36-.6-.36-.07,0-.14,.01-.2,.04L1.69,8.98c-.44,.2-.43,.57-.39,.76,.03,.15,.16,.51,.62,.51H10.23v8.32c0,.5,.44,.64,.67,.64,.27,0,.47-.14,.6-.41Z"/></g></g></svg>